<?xml version="1.0" encoding="utf-8" standalone="no"?>
<!DOCTYPE svg PUBLIC "-//W3C//DTD SVG 1.1//EN"
  "http://www.w3.org/Graphics/SVG/1.1/DTD/svg11.dtd">
<!-- Created with matplotlib (https://matplotlib.org/) -->
<svg height="345.6pt" version="1.1" viewBox="0 0 460.8 345.6" width="460.8pt" xmlns="http://www.w3.org/2000/svg" xmlns:xlink="http://www.w3.org/1999/xlink">
 <metadata>
  <rdf:RDF xmlns:cc="http://creativecommons.org/ns#" xmlns:dc="http://purl.org/dc/elements/1.1/" xmlns:rdf="http://www.w3.org/1999/02/22-rdf-syntax-ns#">
   <cc:Work>
    <dc:type rdf:resource="http://purl.org/dc/dcmitype/StillImage"/>
    <dc:date>2023-07-13T21:38:20.503767</dc:date>
    <dc:format>image/svg+xml</dc:format>
    <dc:creator>
     <cc:Agent>
      <dc:title>Matplotlib v3.3.2, https://matplotlib.org/</dc:title>
     </cc:Agent>
    </dc:creator>
   </cc:Work>
  </rdf:RDF>
 </metadata>
 <defs>
  <style type="text/css">*{stroke-linecap:butt;stroke-linejoin:round;}</style>
 </defs>
 <g id="figure_1">
  <g id="patch_1">
   <path d="M 0 345.6 
L 460.8 345.6 
L 460.8 0 
L 0 0 
z
" style="fill:#ffffff;"/>
  </g>
  <g id="axes_1">
   <g id="patch_2">
    <path clip-path="url(#p8d98e58f28)" d="M 280.751027 106.319805 
C 274.955551 94.570032 266.432161 84.375582 255.894821 76.590394 
C 245.35748 68.805206 233.108859 63.652899 220.174965 61.565056 
C 207.241071 59.477213 193.993412 60.513806 181.54168 64.588003 
C 169.089948 68.6622 157.791803 75.656976 148.593634 84.986413 
C 139.395465 94.31585 132.561478 105.711972 128.664121 118.220182 
C 124.766765 130.728392 123.917986 143.989408 126.188883 156.892421 
C 128.45978 169.795434 133.785123 181.96982 141.718836 192.395793 
C 149.652549 202.821766 159.966746 211.199852 171.797457 216.82826 
C 170.230407 204.3431 171.561079 191.663134 175.685903 179.775296 
C 179.810726 167.887458 186.619833 157.10839 195.583242 148.277073 
C 204.546651 139.445756 215.425615 132.797418 227.373377 128.849528 
C 239.321139 124.901638 252.019463 123.75935 264.479983 125.511574 
C 266.170835 121.59846 268.43135 117.956942 271.188015 114.705444 
C 273.944679 111.453946 277.167284 108.6281 280.751027 106.319805 
" style="fill:#ff0000;opacity:0.4;"/>
   </g>
   <g id="patch_3">
    <path clip-path="url(#p8d98e58f28)" d="M 280.751027 106.319805 
C 282.801532 110.477009 284.496457 114.800337 285.817638 119.243466 
C 287.13882 123.686595 288.081525 128.233598 288.63565 132.835757 
C 297.996253 137.346918 306.413558 143.598275 313.437558 151.255617 
C 320.461558 158.912959 325.964808 167.83735 329.653092 177.55167 
C 338.727415 170.921192 344.867035 161.005909 346.758166 149.927542 
C 348.649296 138.849176 346.146685 127.458622 339.785853 118.193289 
C 333.425021 108.927956 323.694525 102.499486 312.676545 100.283475 
C 301.658566 98.067464 290.19936 100.234118 280.751027 106.319805 
" style="fill:#ffbb00;opacity:0.4;"/>
   </g>
   <g id="patch_4">
    <path clip-path="url(#p8d98e58f28)" d="M 280.751027 106.319805 
C 277.167284 108.6281 273.944679 111.453946 271.188015 114.705444 
C 268.43135 117.956942 266.170835 121.59846 264.479983 125.511574 
C 268.664679 126.100035 272.797569 127.011443 276.841629 128.237632 
C 280.885689 129.463822 284.828804 131.001121 288.63565 132.835757 
C 288.081525 128.233598 287.13882 123.686595 285.817638 119.243466 
C 284.496457 114.800337 282.801532 110.477009 280.751027 106.319805 
" style="fill:#ff8300;opacity:0.4;"/>
   </g>
   <g id="patch_5">
    <path clip-path="url(#p8d98e58f28)" d="M 171.797457 216.82826 
C 173.239272 228.315628 177.100241 239.367876 183.125074 249.254221 
C 189.149907 259.140567 197.202823 267.638202 206.751358 274.185258 
C 216.299892 280.732313 227.12885 285.181238 238.522213 287.237866 
C 249.915577 289.294494 261.616573 288.912475 272.851525 286.117069 
C 284.086478 283.321663 294.602184 278.175869 303.703337 271.019932 
C 312.804491 263.863994 320.285981 254.859186 325.653125 244.60091 
C 331.020268 234.342635 334.152107 223.062083 334.841562 211.505133 
C 335.531017 199.948183 333.762549 188.375293 329.653092 177.55167 
C 322.602545 182.703404 314.153543 185.59942 305.42516 185.856141 
C 296.696777 186.112861 288.092171 183.718428 280.751027 178.989985 
C 271.207065 198.339455 254.413508 213.17027 234.032402 220.248385 
C 213.651295 227.3265 191.280216 226.097096 171.797457 216.82826 
" style="fill:#00ffef;opacity:0.4;"/>
   </g>
   <g id="patch_6">
    <path clip-path="url(#p8d98e58f28)" d="M 171.797457 216.82826 
C 191.280216 226.097096 213.651295 227.3265 234.032402 220.248385 
C 254.413508 213.17027 271.207065 198.339455 280.751027 178.989985 
C 272.147059 173.448155 265.785054 165.026452 262.806067 155.235345 
C 259.827079 145.444238 260.42053 134.906306 264.479983 125.511574 
C 252.019463 123.75935 239.321139 124.901638 227.373377 128.849528 
C 215.425615 132.797418 204.546651 139.445756 195.583242 148.277073 
C 186.619833 157.10839 179.810726 167.887458 175.685903 179.775296 
C 171.561079 191.663134 170.230407 204.3431 171.797457 216.82826 
" style="fill:#b2b2a7;opacity:0.4;"/>
   </g>
   <g id="patch_7">
    <path clip-path="url(#p8d98e58f28)" d="M 288.63565 132.835757 
C 289.583293 140.706187 289.386605 148.672514 288.05171 156.486588 
C 286.716815 164.300663 284.257721 171.880498 280.751027 178.989985 
C 288.092171 183.718428 296.696777 186.112861 305.42516 185.856141 
C 314.153543 185.59942 322.602545 182.703404 329.653092 177.55167 
C 325.964808 167.83735 320.461558 158.912959 313.437558 151.255617 
C 306.413558 143.598275 297.996253 137.346918 288.63565 132.835757 
" style="fill:#b2ffa7;opacity:0.4;"/>
   </g>
   <g id="patch_8">
    <path clip-path="url(#p8d98e58f28)" d="M 264.479983 125.511574 
C 260.42053 134.906306 259.827079 145.444238 262.806067 155.235345 
C 265.785054 165.026452 272.147059 173.448155 280.751027 178.989985 
C 284.257721 171.880498 286.716815 164.300663 288.05171 156.486588 
C 289.386605 148.672514 289.583293 140.706187 288.63565 132.835757 
C 284.828804 131.001121 280.885689 129.463822 276.841629 128.237632 
C 272.797569 127.011443 268.664679 126.100035 264.479983 125.511574 
" style="fill:#ccb160;opacity:0.4;"/>
   </g>
   <g id="text_1">
    <!-- 1843 -->
    <g transform="translate(161.310618 109.187867)scale(0.1 -0.1)">
     <defs>
      <path d="M 12.40625 8.296875 
L 28.515625 8.296875 
L 28.515625 63.921875 
L 10.984375 60.40625 
L 10.984375 69.390625 
L 28.421875 72.90625 
L 38.28125 72.90625 
L 38.28125 8.296875 
L 54.390625 8.296875 
L 54.390625 0 
L 12.40625 0 
z
" id="DejaVuSans-49"/>
      <path d="M 31.78125 34.625 
Q 24.75 34.625 20.71875 30.859375 
Q 16.703125 27.09375 16.703125 20.515625 
Q 16.703125 13.921875 20.71875 10.15625 
Q 24.75 6.390625 31.78125 6.390625 
Q 38.8125 6.390625 42.859375 10.171875 
Q 46.921875 13.96875 46.921875 20.515625 
Q 46.921875 27.09375 42.890625 30.859375 
Q 38.875 34.625 31.78125 34.625 
z
M 21.921875 38.8125 
Q 15.578125 40.375 12.03125 44.71875 
Q 8.5 49.078125 8.5 55.328125 
Q 8.5 64.0625 14.71875 69.140625 
Q 20.953125 74.21875 31.78125 74.21875 
Q 42.671875 74.21875 48.875 69.140625 
Q 55.078125 64.0625 55.078125 55.328125 
Q 55.078125 49.078125 51.53125 44.71875 
Q 48 40.375 41.703125 38.8125 
Q 48.828125 37.15625 52.796875 32.3125 
Q 56.78125 27.484375 56.78125 20.515625 
Q 56.78125 9.90625 50.3125 4.234375 
Q 43.84375 -1.421875 31.78125 -1.421875 
Q 19.734375 -1.421875 13.25 4.234375 
Q 6.78125 9.90625 6.78125 20.515625 
Q 6.78125 27.484375 10.78125 32.3125 
Q 14.796875 37.15625 21.921875 38.8125 
z
M 18.3125 54.390625 
Q 18.3125 48.734375 21.84375 45.5625 
Q 25.390625 42.390625 31.78125 42.390625 
Q 38.140625 42.390625 41.71875 45.5625 
Q 45.3125 48.734375 45.3125 54.390625 
Q 45.3125 60.0625 41.71875 63.234375 
Q 38.140625 66.40625 31.78125 66.40625 
Q 25.390625 66.40625 21.84375 63.234375 
Q 18.3125 60.0625 18.3125 54.390625 
z
" id="DejaVuSans-56"/>
      <path d="M 37.796875 64.3125 
L 12.890625 25.390625 
L 37.796875 25.390625 
z
M 35.203125 72.90625 
L 47.609375 72.90625 
L 47.609375 25.390625 
L 58.015625 25.390625 
L 58.015625 17.1875 
L 47.609375 17.1875 
L 47.609375 0 
L 37.796875 0 
L 37.796875 17.1875 
L 4.890625 17.1875 
L 4.890625 26.703125 
z
" id="DejaVuSans-52"/>
      <path d="M 40.578125 39.3125 
Q 47.65625 37.796875 51.625 33 
Q 55.609375 28.21875 55.609375 21.1875 
Q 55.609375 10.40625 48.1875 4.484375 
Q 40.765625 -1.421875 27.09375 -1.421875 
Q 22.515625 -1.421875 17.65625 -0.515625 
Q 12.796875 0.390625 7.625 2.203125 
L 7.625 11.71875 
Q 11.71875 9.328125 16.59375 8.109375 
Q 21.484375 6.890625 26.8125 6.890625 
Q 36.078125 6.890625 40.9375 10.546875 
Q 45.796875 14.203125 45.796875 21.1875 
Q 45.796875 27.640625 41.28125 31.265625 
Q 36.765625 34.90625 28.71875 34.90625 
L 20.21875 34.90625 
L 20.21875 43.015625 
L 29.109375 43.015625 
Q 36.375 43.015625 40.234375 45.921875 
Q 44.09375 48.828125 44.09375 54.296875 
Q 44.09375 59.90625 40.109375 62.90625 
Q 36.140625 65.921875 28.71875 65.921875 
Q 24.65625 65.921875 20.015625 65.03125 
Q 15.375 64.15625 9.8125 62.3125 
L 9.8125 71.09375 
Q 15.4375 72.65625 20.34375 73.4375 
Q 25.25 74.21875 29.59375 74.21875 
Q 40.828125 74.21875 47.359375 69.109375 
Q 53.90625 64.015625 53.90625 55.328125 
Q 53.90625 49.265625 50.4375 45.09375 
Q 46.96875 40.921875 40.578125 39.3125 
z
" id="DejaVuSans-51"/>
     </defs>
     <use xlink:href="#DejaVuSans-49"/>
     <use x="63.623047" xlink:href="#DejaVuSans-56"/>
     <use x="127.246094" xlink:href="#DejaVuSans-52"/>
     <use x="190.869141" xlink:href="#DejaVuSans-51"/>
    </g>
   </g>
   <g id="text_2">
    <!-- 420 -->
    <g transform="translate(321.089774 127.039842)scale(0.1 -0.1)">
     <defs>
      <path d="M 19.1875 8.296875 
L 53.609375 8.296875 
L 53.609375 0 
L 7.328125 0 
L 7.328125 8.296875 
Q 12.9375 14.109375 22.625 23.890625 
Q 32.328125 33.6875 34.8125 36.53125 
Q 39.546875 41.84375 41.421875 45.53125 
Q 43.3125 49.21875 43.3125 52.78125 
Q 43.3125 58.59375 39.234375 62.25 
Q 35.15625 65.921875 28.609375 65.921875 
Q 23.96875 65.921875 18.8125 64.3125 
Q 13.671875 62.703125 7.8125 59.421875 
L 7.8125 69.390625 
Q 13.765625 71.78125 18.9375 73 
Q 24.125 74.21875 28.421875 74.21875 
Q 39.75 74.21875 46.484375 68.546875 
Q 53.21875 62.890625 53.21875 53.421875 
Q 53.21875 48.921875 51.53125 44.890625 
Q 49.859375 40.875 45.40625 35.40625 
Q 44.1875 33.984375 37.640625 27.21875 
Q 31.109375 20.453125 19.1875 8.296875 
z
" id="DejaVuSans-50"/>
      <path d="M 31.78125 66.40625 
Q 24.171875 66.40625 20.328125 58.90625 
Q 16.5 51.421875 16.5 36.375 
Q 16.5 21.390625 20.328125 13.890625 
Q 24.171875 6.390625 31.78125 6.390625 
Q 39.453125 6.390625 43.28125 13.890625 
Q 47.125 21.390625 47.125 36.375 
Q 47.125 51.421875 43.28125 58.90625 
Q 39.453125 66.40625 31.78125 66.40625 
z
M 31.78125 74.21875 
Q 44.046875 74.21875 50.515625 64.515625 
Q 56.984375 54.828125 56.984375 36.375 
Q 56.984375 17.96875 50.515625 8.265625 
Q 44.046875 -1.421875 31.78125 -1.421875 
Q 19.53125 -1.421875 13.0625 8.265625 
Q 6.59375 17.96875 6.59375 36.375 
Q 6.59375 54.828125 13.0625 64.515625 
Q 19.53125 74.21875 31.78125 74.21875 
z
" id="DejaVuSans-48"/>
     </defs>
     <use xlink:href="#DejaVuSans-52"/>
     <use x="63.623047" xlink:href="#DejaVuSans-50"/>
     <use x="127.246094" xlink:href="#DejaVuSans-48"/>
    </g>
   </g>
   <g id="text_3">
    <!-- 84 -->
    <g transform="translate(270.235129 122.085178)scale(0.1 -0.1)">
     <use xlink:href="#DejaVuSans-56"/>
     <use x="63.623047" xlink:href="#DejaVuSans-52"/>
    </g>
   </g>
   <g id="text_4">
    <!-- 1643 -->
    <g transform="translate(256.668097 252.526181)scale(0.1 -0.1)">
     <defs>
      <path d="M 33.015625 40.375 
Q 26.375 40.375 22.484375 35.828125 
Q 18.609375 31.296875 18.609375 23.390625 
Q 18.609375 15.53125 22.484375 10.953125 
Q 26.375 6.390625 33.015625 6.390625 
Q 39.65625 6.390625 43.53125 10.953125 
Q 47.40625 15.53125 47.40625 23.390625 
Q 47.40625 31.296875 43.53125 35.828125 
Q 39.65625 40.375 33.015625 40.375 
z
M 52.59375 71.296875 
L 52.59375 62.3125 
Q 48.875 64.0625 45.09375 64.984375 
Q 41.3125 65.921875 37.59375 65.921875 
Q 27.828125 65.921875 22.671875 59.328125 
Q 17.53125 52.734375 16.796875 39.40625 
Q 19.671875 43.65625 24.015625 45.921875 
Q 28.375 48.1875 33.59375 48.1875 
Q 44.578125 48.1875 50.953125 41.515625 
Q 57.328125 34.859375 57.328125 23.390625 
Q 57.328125 12.15625 50.6875 5.359375 
Q 44.046875 -1.421875 33.015625 -1.421875 
Q 20.359375 -1.421875 13.671875 8.265625 
Q 6.984375 17.96875 6.984375 36.375 
Q 6.984375 53.65625 15.1875 63.9375 
Q 23.390625 74.21875 37.203125 74.21875 
Q 40.921875 74.21875 44.703125 73.484375 
Q 48.484375 72.75 52.59375 71.296875 
z
" id="DejaVuSans-54"/>
     </defs>
     <use xlink:href="#DejaVuSans-49"/>
     <use x="63.623047" xlink:href="#DejaVuSans-54"/>
     <use x="127.246094" xlink:href="#DejaVuSans-52"/>
     <use x="190.869141" xlink:href="#DejaVuSans-51"/>
    </g>
   </g>
   <g id="text_5">
    <!-- 1212 -->
    <g transform="translate(215.034625 176.423658)scale(0.1 -0.1)">
     <use xlink:href="#DejaVuSans-49"/>
     <use x="63.623047" xlink:href="#DejaVuSans-50"/>
     <use x="127.246094" xlink:href="#DejaVuSans-49"/>
     <use x="190.869141" xlink:href="#DejaVuSans-50"/>
    </g>
   </g>
   <g id="text_6">
    <!-- 266 -->
    <g transform="translate(294.321405 171.595345)scale(0.1 -0.1)">
     <use xlink:href="#DejaVuSans-50"/>
     <use x="63.623047" xlink:href="#DejaVuSans-54"/>
     <use x="127.246094" xlink:href="#DejaVuSans-54"/>
    </g>
   </g>
   <g id="text_7">
    <!-- 137 -->
    <g transform="translate(261.517189 154.668781)scale(0.1 -0.1)">
     <defs>
      <path d="M 8.203125 72.90625 
L 55.078125 72.90625 
L 55.078125 68.703125 
L 28.609375 0 
L 18.3125 0 
L 43.21875 64.59375 
L 8.203125 64.59375 
z
" id="DejaVuSans-55"/>
     </defs>
     <use xlink:href="#DejaVuSans-49"/>
     <use x="63.623047" xlink:href="#DejaVuSans-51"/>
     <use x="127.246094" xlink:href="#DejaVuSans-55"/>
    </g>
   </g>
   <g id="text_8">
    <!-- T_vs_N -->
    <g transform="translate(124.354706 60.515341)scale(0.12 -0.12)">
     <defs>
      <path d="M -0.296875 72.90625 
L 61.375 72.90625 
L 61.375 64.59375 
L 35.5 64.59375 
L 35.5 0 
L 25.59375 0 
L 25.59375 64.59375 
L -0.296875 64.59375 
z
" id="DejaVuSans-84"/>
      <path d="M 50.984375 -16.609375 
L 50.984375 -23.578125 
L -0.984375 -23.578125 
L -0.984375 -16.609375 
z
" id="DejaVuSans-95"/>
      <path d="M 2.984375 54.6875 
L 12.5 54.6875 
L 29.59375 8.796875 
L 46.6875 54.6875 
L 56.203125 54.6875 
L 35.6875 0 
L 23.484375 0 
z
" id="DejaVuSans-118"/>
      <path d="M 44.28125 53.078125 
L 44.28125 44.578125 
Q 40.484375 46.53125 36.375 47.5 
Q 32.28125 48.484375 27.875 48.484375 
Q 21.1875 48.484375 17.84375 46.4375 
Q 14.5 44.390625 14.5 40.28125 
Q 14.5 37.15625 16.890625 35.375 
Q 19.28125 33.59375 26.515625 31.984375 
L 29.59375 31.296875 
Q 39.15625 29.25 43.1875 25.515625 
Q 47.21875 21.78125 47.21875 15.09375 
Q 47.21875 7.46875 41.1875 3.015625 
Q 35.15625 -1.421875 24.609375 -1.421875 
Q 20.21875 -1.421875 15.453125 -0.5625 
Q 10.6875 0.296875 5.421875 2 
L 5.421875 11.28125 
Q 10.40625 8.6875 15.234375 7.390625 
Q 20.0625 6.109375 24.8125 6.109375 
Q 31.15625 6.109375 34.5625 8.28125 
Q 37.984375 10.453125 37.984375 14.40625 
Q 37.984375 18.0625 35.515625 20.015625 
Q 33.0625 21.96875 24.703125 23.78125 
L 21.578125 24.515625 
Q 13.234375 26.265625 9.515625 29.90625 
Q 5.8125 33.546875 5.8125 39.890625 
Q 5.8125 47.609375 11.28125 51.796875 
Q 16.75 56 26.8125 56 
Q 31.78125 56 36.171875 55.265625 
Q 40.578125 54.546875 44.28125 53.078125 
z
" id="DejaVuSans-115"/>
      <path d="M 9.8125 72.90625 
L 23.09375 72.90625 
L 55.421875 11.921875 
L 55.421875 72.90625 
L 64.984375 72.90625 
L 64.984375 0 
L 51.703125 0 
L 19.390625 60.984375 
L 19.390625 0 
L 9.8125 0 
z
" id="DejaVuSans-78"/>
     </defs>
     <use xlink:href="#DejaVuSans-84"/>
     <use x="61.083984" xlink:href="#DejaVuSans-95"/>
     <use x="111.083984" xlink:href="#DejaVuSans-118"/>
     <use x="170.263672" xlink:href="#DejaVuSans-115"/>
     <use x="222.363281" xlink:href="#DejaVuSans-95"/>
     <use x="272.363281" xlink:href="#DejaVuSans-78"/>
    </g>
   </g>
   <g id="text_9">
    <!-- M_vs_T -->
    <g transform="translate(325.764482 99.434967)scale(0.12 -0.12)">
     <defs>
      <path d="M 9.8125 72.90625 
L 24.515625 72.90625 
L 43.109375 23.296875 
L 61.8125 72.90625 
L 76.515625 72.90625 
L 76.515625 0 
L 66.890625 0 
L 66.890625 64.015625 
L 48.09375 14.015625 
L 38.1875 14.015625 
L 19.390625 64.015625 
L 19.390625 0 
L 9.8125 0 
z
" id="DejaVuSans-77"/>
     </defs>
     <use xlink:href="#DejaVuSans-77"/>
     <use x="86.279297" xlink:href="#DejaVuSans-95"/>
     <use x="136.279297" xlink:href="#DejaVuSans-118"/>
     <use x="195.458984" xlink:href="#DejaVuSans-115"/>
     <use x="247.558594" xlink:href="#DejaVuSans-95"/>
     <use x="297.558594" xlink:href="#DejaVuSans-84"/>
    </g>
   </g>
   <g id="text_10">
    <!-- M_vs_N -->
    <g transform="translate(230.730853 305.516393)scale(0.12 -0.12)">
     <use xlink:href="#DejaVuSans-77"/>
     <use x="86.279297" xlink:href="#DejaVuSans-95"/>
     <use x="136.279297" xlink:href="#DejaVuSans-118"/>
     <use x="195.458984" xlink:href="#DejaVuSans-115"/>
     <use x="247.558594" xlink:href="#DejaVuSans-95"/>
     <use x="297.558594" xlink:href="#DejaVuSans-78"/>
    </g>
   </g>
  </g>
 </g>
 <defs>
  <clipPath id="p8d98e58f28">
   <rect height="266.112" width="260.515574" x="105.902213" y="41.472"/>
  </clipPath>
 </defs>
</svg>
